<svg width="56" height="56" viewBox="0 0 56 56" fill="none" xmlns="http://www.w3.org/2000/svg">
<path d="M52.4998 28C52.5054 28.7178 52.2872 29.4195 51.8755 30.0075C51.4639 30.5956 50.8793 31.0408 50.2029 31.2812L36.3255 36.3278L31.2811 50.2031C31.0324 50.8729 30.5848 51.4506 29.9982 51.8586C29.4117 52.2665 28.7143 52.4852 27.9998 52.4852C27.2854 52.4852 26.588 52.2665 26.0014 51.8586C25.4149 51.4506 24.9672 50.8729 24.7186 50.2031L19.672 36.3125L5.7967 31.2812C5.12688 31.0326 4.5492 30.585 4.14125 29.9984C3.73331 29.4118 3.51465 28.7145 3.51465 28C3.51465 27.2855 3.73331 26.5882 4.14125 26.0016C4.5492 25.415 5.12688 24.9674 5.7967 24.7188L19.6873 19.6722L24.7186 5.79688C24.9672 5.12706 25.4149 4.54937 26.0014 4.14143C26.588 3.73348 27.2854 3.51482 27.9998 3.51482C28.7143 3.51482 29.4117 3.73348 29.9982 4.14143C30.5848 4.54937 31.0324 5.12706 31.2811 5.79688L36.3276 19.6875L50.2029 24.7188C50.8793 24.9592 51.4639 25.4044 51.8755 25.9925C52.2872 26.5805 52.5054 27.2822 52.4998 28Z" fill="#FFBE17"/>
</svg>
