<svg width="204" height="153" viewBox="0 0 204 153" fill="none" xmlns="http://www.w3.org/2000/svg">
<path d="M173.13 2.21418C173.13 3.43581 174.453 4.42839 176.082 4.42839C177.71 4.42839 179.033 3.43581 179.033 2.21418C179.033 0.992549 177.71 0 176.082 0C174.453 0 173.13 0.992549 173.13 2.21418Z" fill="#2874F0"/>
<path d="M148.453 2.21418C148.453 3.43581 149.776 4.42839 151.405 4.42839C153.034 4.42839 154.357 3.43581 154.357 2.21418C154.357 0.992549 153.034 0 151.405 0C149.776 0 148.453 0.992549 148.453 2.21418Z" fill="#2874F0"/>
<path d="M197.812 2.21418C197.812 3.43581 199.136 4.42839 200.764 4.42839C202.393 4.42839 203.716 3.43581 203.716 2.21418C203.716 0.992549 202.393 0 200.764 0C199.136 0 197.812 0.992549 197.812 2.21418Z" fill="#2874F0"/>
<path d="M99.0781 2.21418C99.0781 3.43581 100.401 4.42839 102.03 4.42839C103.659 4.42839 104.982 3.43581 104.982 2.21418C104.982 0.992549 103.659 0 102.03 0C100.401 0 99.0781 0.992549 99.0781 2.21418Z" fill="#2874F0"/>
<path d="M74.3848 2.21418C74.3848 3.43581 75.708 4.42839 77.3365 4.42839C78.9651 4.42839 80.2884 3.43581 80.2884 2.21418C80.2884 0.992549 78.9651 0 77.3365 0C75.708 0 74.3848 0.992549 74.3848 2.21418Z" fill="#2874F0"/>
<path d="M123.76 2.21418C123.76 3.43581 125.083 4.42839 126.712 4.42839C128.34 4.42839 129.663 3.43581 129.663 2.21418C129.663 0.992549 128.34 0 126.712 0C125.083 0 123.76 0.992549 123.76 2.21418Z" fill="#2874F0"/>
<path d="M25.0098 2.21418C25.0098 3.43581 26.333 4.42839 27.9615 4.42839C29.5901 4.42839 30.9134 3.43581 30.9134 2.21418C30.9134 0.992549 29.5901 0 27.9615 0C26.333 0 25.0098 0.992549 25.0098 2.21418Z" fill="#2874F0"/>
<path d="M0.333008 2.21418C0.333008 3.43581 1.65625 4.42839 3.28483 4.42839C4.91341 4.42839 6.2366 3.43581 6.2366 2.21418C6.2366 0.992549 4.91341 0 3.28483 0C1.65625 0 0.333008 0.992549 0.333008 2.21418Z" fill="#2874F0"/>
<path d="M49.7031 2.21418C49.7031 3.43581 51.0264 4.42839 52.6549 4.42839C54.2835 4.42839 55.6068 3.43581 55.6068 2.21418C55.6068 0.992549 54.2835 0 52.6549 0C51.0264 0 49.7031 0.992549 49.7031 2.21418Z" fill="#2874F0"/>
<path d="M173.13 20.7298C173.13 21.9515 174.453 22.9441 176.082 22.9441C177.71 22.9441 179.033 21.9515 179.033 20.7298C179.033 19.5082 177.71 18.5156 176.082 18.5156C174.453 18.5156 173.13 19.5082 173.13 20.7298Z" fill="#2874F0"/>
<path d="M148.453 20.7298C148.453 21.9515 149.776 22.9441 151.405 22.9441C153.034 22.9441 154.357 21.9515 154.357 20.7298C154.357 19.5082 153.034 18.5156 151.405 18.5156C149.776 18.5156 148.453 19.5082 148.453 20.7298Z" fill="#2874F0"/>
<path d="M197.812 20.7298C197.812 21.9515 199.136 22.9441 200.764 22.9441C202.393 22.9441 203.716 21.9515 203.716 20.7298C203.716 19.5082 202.393 18.5156 200.764 18.5156C199.136 18.5156 197.812 19.5082 197.812 20.7298Z" fill="#2874F0"/>
<path d="M99.0781 20.7298C99.0781 21.9515 100.401 22.9441 102.03 22.9441C103.659 22.9441 104.982 21.9515 104.982 20.7298C104.982 19.5082 103.659 18.5156 102.03 18.5156C100.401 18.5156 99.0781 19.5082 99.0781 20.7298Z" fill="#2874F0"/>
<path d="M74.3848 20.7298C74.3848 21.9515 75.708 22.9441 77.3365 22.9441C78.9651 22.9441 80.2884 21.9515 80.2884 20.7298C80.2884 19.5082 78.9651 18.5156 77.3365 18.5156C75.708 18.5156 74.3848 19.5082 74.3848 20.7298Z" fill="#2874F0"/>
<path d="M123.76 20.7298C123.76 21.9515 125.083 22.9441 126.712 22.9441C128.34 22.9441 129.663 21.9515 129.663 20.7298C129.663 19.5082 128.34 18.5156 126.712 18.5156C125.083 18.5156 123.76 19.5082 123.76 20.7298Z" fill="#2874F0"/>
<path d="M25.0098 20.7298C25.0098 21.9515 26.333 22.9441 27.9615 22.9441C29.5901 22.9441 30.9134 21.9515 30.9134 20.7298C30.9134 19.5082 29.5901 18.5156 27.9615 18.5156C26.333 18.5156 25.0098 19.5082 25.0098 20.7298Z" fill="#2874F0"/>
<path d="M0.333008 20.7298C0.333008 21.9515 1.65625 22.9441 3.28483 22.9441C4.91341 22.9441 6.2366 21.9515 6.2366 20.7298C6.2366 19.5082 4.91341 18.5156 3.28483 18.5156C1.65625 18.5156 0.333008 19.5082 0.333008 20.7298Z" fill="#2874F0"/>
<path d="M49.7031 20.7298C49.7031 21.9515 51.0264 22.9441 52.6549 22.9441C54.2835 22.9441 55.6068 21.9515 55.6068 20.7298C55.6068 19.5082 54.2835 18.5156 52.6549 18.5156C51.0264 18.5156 49.7031 19.5082 49.7031 20.7298Z" fill="#2874F0"/>
<path d="M173.13 39.2532C173.13 40.4749 174.453 41.4675 176.082 41.4675C177.71 41.4675 179.033 40.4749 179.033 39.2532C179.033 38.0316 177.71 37.0391 176.082 37.0391C174.453 37.0391 173.13 38.0316 173.13 39.2532Z" fill="#2874F0"/>
<path d="M148.453 39.2532C148.453 40.4749 149.776 41.4675 151.405 41.4675C153.034 41.4675 154.357 40.4749 154.357 39.2532C154.357 38.0316 153.034 37.0391 151.405 37.0391C149.776 37.0391 148.453 38.0316 148.453 39.2532Z" fill="#2874F0"/>
<path d="M197.812 39.2532C197.812 40.4749 199.136 41.4675 200.764 41.4675C202.393 41.4675 203.716 40.4749 203.716 39.2532C203.716 38.0316 202.393 37.0391 200.764 37.0391C199.136 37.0391 197.812 38.0316 197.812 39.2532Z" fill="#2874F0"/>
<path d="M99.0781 39.2532C99.0781 40.4749 100.401 41.4675 102.03 41.4675C103.659 41.4675 104.982 40.4749 104.982 39.2532C104.982 38.0316 103.659 37.0391 102.03 37.0391C100.401 37.0391 99.0781 38.0316 99.0781 39.2532Z" fill="#2874F0"/>
<path d="M74.3848 39.2532C74.3848 40.4749 75.708 41.4675 77.3365 41.4675C78.9651 41.4675 80.2884 40.4749 80.2884 39.2532C80.2884 38.0316 78.9651 37.0391 77.3365 37.0391C75.708 37.0391 74.3848 38.0316 74.3848 39.2532Z" fill="#2874F0"/>
<path d="M126.712 41.4675C128.342 41.4675 129.663 40.4761 129.663 39.2532C129.663 38.0304 128.342 37.0391 126.712 37.0391C125.081 37.0391 123.76 38.0304 123.76 39.2532C123.76 40.4761 125.081 41.4675 126.712 41.4675Z" fill="#2874F0"/>
<path d="M25.0098 39.2532C25.0098 40.4749 26.333 41.4675 27.9615 41.4675C29.5901 41.4675 30.9134 40.4749 30.9134 39.2532C30.9134 38.0316 29.5901 37.0391 27.9615 37.0391C26.333 37.0391 25.0098 38.0316 25.0098 39.2532Z" fill="#2874F0"/>
<path d="M0.333008 39.2532C0.333008 40.4749 1.65625 41.4675 3.28483 41.4675C4.91341 41.4675 6.2366 40.4749 6.2366 39.2532C6.2366 38.0316 4.91341 37.0391 3.28483 37.0391C1.65625 37.0391 0.333008 38.0316 0.333008 39.2532Z" fill="#2874F0"/>
<path d="M52.6549 41.4675C54.2852 41.4675 55.6068 40.4761 55.6068 39.2532C55.6068 38.0304 54.2852 37.0391 52.6549 37.0391C51.0247 37.0391 49.7031 38.0304 49.7031 39.2532C49.7031 40.4761 51.0247 41.4675 52.6549 41.4675Z" fill="#2874F0"/>
<path d="M173.13 57.7689C173.13 58.9905 174.453 59.9831 176.082 59.9831C177.71 59.9831 179.033 58.9905 179.033 57.7689C179.033 56.5473 177.71 55.5547 176.082 55.5547C174.453 55.5547 173.13 56.5473 173.13 57.7689Z" fill="#2874F0"/>
<path d="M148.453 57.7689C148.453 58.9905 149.776 59.9831 151.405 59.9831C153.034 59.9831 154.357 58.9905 154.357 57.7689C154.357 56.5473 153.034 55.5547 151.405 55.5547C149.776 55.5547 148.453 56.5473 148.453 57.7689Z" fill="#2874F0"/>
<path d="M197.812 57.7689C197.812 58.9905 199.136 59.9831 200.764 59.9831C202.393 59.9831 203.716 58.9905 203.716 57.7689C203.716 56.5473 202.393 55.5547 200.764 55.5547C199.136 55.5547 197.812 56.5473 197.812 57.7689Z" fill="#2874F0"/>
<path d="M99.0781 57.7689C99.0781 58.9905 100.401 59.9831 102.03 59.9831C103.659 59.9831 104.982 58.9905 104.982 57.7689C104.982 56.5473 103.659 55.5547 102.03 55.5547C100.401 55.5547 99.0781 56.5473 99.0781 57.7689Z" fill="#2874F0"/>
<path d="M74.3848 57.7689C74.3848 58.9905 75.708 59.9831 77.3365 59.9831C78.9651 59.9831 80.2884 58.9905 80.2884 57.7689C80.2884 56.5473 78.9651 55.5547 77.3365 55.5547C75.708 55.5547 74.3848 56.5473 74.3848 57.7689Z" fill="#2874F0"/>
<path d="M123.76 57.7689C123.76 58.9905 125.083 59.9831 126.712 59.9831C128.34 59.9831 129.663 58.9905 129.663 57.7689C129.663 56.5473 128.34 55.5547 126.712 55.5547C125.083 55.5547 123.76 56.5473 123.76 57.7689Z" fill="#2874F0"/>
<path d="M25.0098 57.7689C25.0098 58.9905 26.333 59.9831 27.9615 59.9831C29.5901 59.9831 30.9134 58.9905 30.9134 57.7689C30.9134 56.5473 29.5901 55.5547 27.9615 55.5547C26.333 55.5547 25.0098 56.5473 25.0098 57.7689Z" fill="#2874F0"/>
<path d="M0.333008 57.7689C0.333008 58.9905 1.65625 59.9831 3.28483 59.9831C4.91341 59.9831 6.2366 58.9905 6.2366 57.7689C6.2366 56.5473 4.91341 55.5547 3.28483 55.5547C1.65625 55.5547 0.333008 56.5473 0.333008 57.7689Z" fill="#2874F0"/>
<path d="M49.7031 57.7689C49.7031 58.9905 51.0264 59.9831 52.6549 59.9831C54.2835 59.9831 55.6068 58.9905 55.6068 57.7689C55.6068 56.5473 54.2835 55.5547 52.6549 55.5547C51.0264 55.5547 49.7031 56.5473 49.7031 57.7689Z" fill="#2874F0"/>
<path d="M173.13 76.2845C173.13 77.5062 174.453 78.4987 176.082 78.4987C177.71 78.4987 179.033 77.5062 179.033 76.2845C179.033 75.0629 177.71 74.0703 176.082 74.0703C174.453 74.0703 173.13 75.0629 173.13 76.2845Z" fill="#2874F0"/>
<path d="M148.453 76.2845C148.453 77.5062 149.776 78.4987 151.405 78.4987C153.034 78.4987 154.357 77.5062 154.357 76.2845C154.357 75.0629 153.034 74.0703 151.405 74.0703C149.776 74.0703 148.453 75.0629 148.453 76.2845Z" fill="#2874F0"/>
<path d="M197.812 76.2845C197.812 77.5062 199.136 78.4987 200.764 78.4987C202.393 78.4987 203.716 77.5062 203.716 76.2845C203.716 75.0629 202.393 74.0703 200.764 74.0703C199.136 74.0703 197.812 75.0629 197.812 76.2845Z" fill="#2874F0"/>
<path d="M99.0781 76.2845C99.0781 77.5062 100.401 78.4987 102.03 78.4987C103.659 78.4987 104.982 77.5062 104.982 76.2845C104.982 75.0629 103.659 74.0703 102.03 74.0703C100.401 74.0703 99.0781 75.0629 99.0781 76.2845Z" fill="#2874F0"/>
<path d="M74.3848 76.2845C74.3848 77.5062 75.708 78.4987 77.3365 78.4987C78.9651 78.4987 80.2884 77.5062 80.2884 76.2845C80.2884 75.0629 78.9651 74.0703 77.3365 74.0703C75.708 74.0703 74.3848 75.0629 74.3848 76.2845Z" fill="#2874F0"/>
<path d="M123.76 76.2845C123.76 77.5062 125.083 78.4987 126.712 78.4987C128.34 78.4987 129.663 77.5062 129.663 76.2845C129.663 75.0629 128.34 74.0703 126.712 74.0703C125.083 74.0703 123.76 75.0629 123.76 76.2845Z" fill="#2874F0"/>
<path d="M25.0098 76.2845C25.0098 77.5062 26.333 78.4987 27.9615 78.4987C29.5901 78.4987 30.9134 77.5062 30.9134 76.2845C30.9134 75.0629 29.5901 74.0703 27.9615 74.0703C26.333 74.0703 25.0098 75.0629 25.0098 76.2845Z" fill="#2874F0"/>
<path d="M0.333008 76.2845C0.333008 77.5062 1.65625 78.4987 3.28483 78.4987C4.91341 78.4987 6.2366 77.5062 6.2366 76.2845C6.2366 75.0629 4.91341 74.0703 3.28483 74.0703C1.65625 74.0703 0.333008 75.0629 0.333008 76.2845Z" fill="#2874F0"/>
<path d="M49.7031 76.2845C49.7031 77.5062 51.0264 78.4987 52.6549 78.4987C54.2835 78.4987 55.6068 77.5062 55.6068 76.2845C55.6068 75.0629 54.2835 74.0703 52.6549 74.0703C51.0264 74.0703 49.7031 75.0629 49.7031 76.2845Z" fill="#2874F0"/>
<path d="M173.13 94.7923C173.13 96.014 174.453 97.0065 176.082 97.0065C177.71 97.0065 179.033 96.014 179.033 94.7923C179.033 93.5707 177.71 92.5781 176.082 92.5781C174.453 92.5781 173.13 93.5707 173.13 94.7923Z" fill="#2874F0"/>
<path d="M148.453 94.7923C148.453 96.014 149.776 97.0065 151.405 97.0065C153.034 97.0065 154.357 96.014 154.357 94.7923C154.357 93.5707 153.034 92.5781 151.405 92.5781C149.776 92.5781 148.453 93.5707 148.453 94.7923Z" fill="#2874F0"/>
<path d="M197.812 94.7923C197.812 96.014 199.136 97.0065 200.764 97.0065C202.393 97.0065 203.716 96.014 203.716 94.7923C203.716 93.5707 202.393 92.5781 200.764 92.5781C199.136 92.5781 197.812 93.5707 197.812 94.7923Z" fill="#2874F0"/>
<path d="M99.0781 94.7923C99.0781 96.014 100.401 97.0065 102.03 97.0065C103.659 97.0065 104.982 96.014 104.982 94.7923C104.982 93.5707 103.659 92.5781 102.03 92.5781C100.401 92.5781 99.0781 93.5707 99.0781 94.7923Z" fill="#2874F0"/>
<path d="M74.3848 94.7923C74.3848 96.014 75.708 97.0065 77.3365 97.0065C78.9651 97.0065 80.2884 96.014 80.2884 94.7923C80.2884 93.5707 78.9651 92.5781 77.3365 92.5781C75.708 92.5781 74.3848 93.5707 74.3848 94.7923Z" fill="#2874F0"/>
<path d="M126.712 97.0065C128.342 97.0065 129.663 96.0152 129.663 94.7923C129.663 93.5695 128.342 92.5781 126.712 92.5781C125.081 92.5781 123.76 93.5695 123.76 94.7923C123.76 96.0152 125.081 97.0065 126.712 97.0065Z" fill="#2874F0"/>
<path d="M25.0098 94.7923C25.0098 96.014 26.333 97.0065 27.9615 97.0065C29.5901 97.0065 30.9134 96.014 30.9134 94.7923C30.9134 93.5707 29.5901 92.5781 27.9615 92.5781C26.333 92.5781 25.0098 93.5707 25.0098 94.7923Z" fill="#2874F0"/>
<path d="M0.333008 94.7923C0.333008 96.014 1.65625 97.0065 3.28483 97.0065C4.91341 97.0065 6.2366 96.014 6.2366 94.7923C6.2366 93.5707 4.91341 92.5781 3.28483 92.5781C1.65625 92.5781 0.333008 93.5707 0.333008 94.7923Z" fill="#2874F0"/>
<path d="M52.6549 97.0065C54.2852 97.0065 55.6068 96.0152 55.6068 94.7923C55.6068 93.5695 54.2852 92.5781 52.6549 92.5781C51.0247 92.5781 49.7031 93.5695 49.7031 94.7923C49.7031 96.0152 51.0247 97.0065 52.6549 97.0065Z" fill="#2874F0"/>
<path d="M173.13 113.316C173.13 114.537 174.453 115.53 176.082 115.53C177.71 115.53 179.033 114.537 179.033 113.316C179.033 112.094 177.71 111.102 176.082 111.102C174.453 111.102 173.13 112.094 173.13 113.316Z" fill="#2874F0"/>
<path d="M148.453 113.316C148.453 114.537 149.776 115.53 151.405 115.53C153.034 115.53 154.357 114.537 154.357 113.316C154.357 112.094 153.034 111.102 151.405 111.102C149.776 111.102 148.453 112.094 148.453 113.316Z" fill="#2874F0"/>
<path d="M197.812 113.316C197.812 114.537 199.136 115.53 200.764 115.53C202.393 115.53 203.716 114.537 203.716 113.316C203.716 112.094 202.393 111.102 200.764 111.102C199.136 111.102 197.812 112.094 197.812 113.316Z" fill="#2874F0"/>
<path d="M99.0781 113.316C99.0781 114.537 100.401 115.53 102.03 115.53C103.659 115.53 104.982 114.537 104.982 113.316C104.982 112.094 103.659 111.102 102.03 111.102C100.401 111.102 99.0781 112.094 99.0781 113.316Z" fill="#2874F0"/>
<path d="M74.3848 113.316C74.3848 114.537 75.708 115.53 77.3365 115.53C78.9651 115.53 80.2884 114.537 80.2884 113.316C80.2884 112.094 78.9651 111.102 77.3365 111.102C75.708 111.102 74.3848 112.094 74.3848 113.316Z" fill="#2874F0"/>
<path d="M123.76 113.316C123.76 114.537 125.083 115.53 126.712 115.53C128.34 115.53 129.663 114.537 129.663 113.316C129.663 112.094 128.34 111.102 126.712 111.102C125.083 111.102 123.76 112.094 123.76 113.316Z" fill="#2874F0"/>
<path d="M25.0098 113.316C25.0098 114.537 26.333 115.53 27.9615 115.53C29.5901 115.53 30.9134 114.537 30.9134 113.316C30.9134 112.094 29.5901 111.102 27.9615 111.102C26.333 111.102 25.0098 112.094 25.0098 113.316Z" fill="#2874F0"/>
<path d="M0.333008 113.316C0.333008 114.537 1.65625 115.53 3.28483 115.53C4.91341 115.53 6.2366 114.537 6.2366 113.316C6.2366 112.094 4.91341 111.102 3.28483 111.102C1.65625 111.102 0.333008 112.094 0.333008 113.316Z" fill="#2874F0"/>
<path d="M49.7031 113.316C49.7031 114.537 51.0264 115.53 52.6549 115.53C54.2835 115.53 55.6068 114.537 55.6068 113.316C55.6068 112.094 54.2835 111.102 52.6549 111.102C51.0264 111.102 49.7031 112.094 49.7031 113.316Z" fill="#2874F0"/>
<path d="M173.13 131.839C173.13 133.061 174.453 134.053 176.082 134.053C177.71 134.053 179.033 133.061 179.033 131.839C179.033 130.618 177.71 129.625 176.082 129.625C174.453 129.625 173.13 130.618 173.13 131.839Z" fill="#2874F0"/>
<path d="M148.453 131.839C148.453 133.061 149.776 134.053 151.405 134.053C153.034 134.053 154.357 133.061 154.357 131.839C154.357 130.618 153.034 129.625 151.405 129.625C149.776 129.625 148.453 130.618 148.453 131.839Z" fill="#2874F0"/>
<path d="M197.812 131.839C197.812 133.061 199.136 134.053 200.764 134.053C202.393 134.053 203.716 133.061 203.716 131.839C203.716 130.618 202.393 129.625 200.764 129.625C199.136 129.625 197.812 130.618 197.812 131.839Z" fill="#2874F0"/>
<path d="M99.0781 131.839C99.0781 133.061 100.401 134.053 102.03 134.053C103.659 134.053 104.982 133.061 104.982 131.839C104.982 130.618 103.659 129.625 102.03 129.625C100.401 129.625 99.0781 130.618 99.0781 131.839Z" fill="#2874F0"/>
<path d="M74.3848 131.839C74.3848 133.061 75.708 134.053 77.3365 134.053C78.9651 134.053 80.2884 133.061 80.2884 131.839C80.2884 130.618 78.9651 129.625 77.3365 129.625C75.708 129.625 74.3848 130.618 74.3848 131.839Z" fill="#2874F0"/>
<path d="M123.76 131.839C123.76 133.061 125.083 134.053 126.712 134.053C128.34 134.053 129.663 133.061 129.663 131.839C129.663 130.618 128.34 129.625 126.712 129.625C125.083 129.625 123.76 130.618 123.76 131.839Z" fill="#2874F0"/>
<path d="M25.0098 131.839C25.0098 133.061 26.333 134.053 27.9615 134.053C29.5901 134.053 30.9134 133.061 30.9134 131.839C30.9134 130.618 29.5901 129.625 27.9615 129.625C26.333 129.625 25.0098 130.618 25.0098 131.839Z" fill="#2874F0"/>
<path d="M0.333008 131.839C0.333008 133.061 1.65625 134.053 3.28483 134.053C4.91341 134.053 6.2366 133.061 6.2366 131.839C6.2366 130.618 4.91341 129.625 3.28483 129.625C1.65625 129.625 0.333008 130.618 0.333008 131.839Z" fill="#2874F0"/>
<path d="M49.7031 131.839C49.7031 133.061 51.0264 134.053 52.6549 134.053C54.2835 134.053 55.6068 133.061 55.6068 131.839C55.6068 130.618 54.2835 129.625 52.6549 129.625C51.0264 129.625 49.7031 130.618 49.7031 131.839Z" fill="#2874F0"/>
<path d="M173.13 150.347C173.13 151.569 174.453 152.561 176.082 152.561C177.71 152.561 179.033 151.569 179.033 150.347C179.033 149.125 177.71 148.133 176.082 148.133C174.453 148.133 173.13 149.125 173.13 150.347Z" fill="#2874F0"/>
<path d="M148.453 150.347C148.453 151.569 149.776 152.561 151.405 152.561C153.034 152.561 154.357 151.569 154.357 150.347C154.357 149.125 153.034 148.133 151.405 148.133C149.776 148.133 148.453 149.125 148.453 150.347Z" fill="#2874F0"/>
<path d="M197.812 150.347C197.812 151.569 199.136 152.561 200.764 152.561C202.393 152.561 203.716 151.569 203.716 150.347C203.716 149.125 202.393 148.133 200.764 148.133C199.136 148.133 197.812 149.125 197.812 150.347Z" fill="#2874F0"/>
<path d="M99.0781 150.347C99.0781 151.569 100.401 152.561 102.03 152.561C103.659 152.561 104.982 151.569 104.982 150.347C104.982 149.125 103.659 148.133 102.03 148.133C100.401 148.133 99.0781 149.125 99.0781 150.347Z" fill="#2874F0"/>
<path d="M74.3848 150.347C74.3848 151.569 75.708 152.561 77.3365 152.561C78.9651 152.561 80.2884 151.569 80.2884 150.347C80.2884 149.125 78.9651 148.133 77.3365 148.133C75.708 148.133 74.3848 149.125 74.3848 150.347Z" fill="#2874F0"/>
<path d="M123.76 150.347C123.76 151.569 125.083 152.561 126.712 152.561C128.34 152.561 129.663 151.569 129.663 150.347C129.663 149.125 128.34 148.133 126.712 148.133C125.083 148.133 123.76 149.125 123.76 150.347Z" fill="#2874F0"/>
<path d="M25.0098 150.347C25.0098 151.569 26.333 152.561 27.9615 152.561C29.5901 152.561 30.9134 151.569 30.9134 150.347C30.9134 149.125 29.5901 148.133 27.9615 148.133C26.333 148.133 25.0098 149.125 25.0098 150.347Z" fill="#2874F0"/>
<path d="M0.333008 150.347C0.333008 151.569 1.65625 152.561 3.28483 152.561C4.91341 152.561 6.2366 151.569 6.2366 150.347C6.2366 149.125 4.91341 148.133 3.28483 148.133C1.65625 148.133 0.333008 149.125 0.333008 150.347Z" fill="#2874F0"/>
<path d="M49.7031 150.347C49.7031 151.569 51.0264 152.561 52.6549 152.561C54.2835 152.561 55.6068 151.569 55.6068 150.347C55.6068 149.125 54.2835 148.133 52.6549 148.133C51.0264 148.133 49.7031 149.125 49.7031 150.347Z" fill="#2874F0"/>
</svg>
