<svg width="57" height="81" viewBox="0 0 57 81" fill="none" xmlns="http://www.w3.org/2000/svg">
<path d="M22.448 19.3923C22.6484 17.082 22.1296 14.7663 20.9628 12.7623C19.796 10.7583 18.0381 9.16409 15.93 8.19796C13.8219 7.23183 11.4667 6.94106 9.18693 7.36548C6.90716 7.7899 4.81436 8.90875 3.19517 10.5688C1.57599 12.2288 0.509614 14.3488 0.142111 16.6385C-0.225392 18.9281 0.123951 21.2753 1.14229 23.3587C2.16063 25.4421 3.79816 27.1597 5.83059 28.2762C7.86301 29.3928 10.1909 29.8537 12.4955 29.5959L12.3552 28.3418C10.3092 28.5707 8.24253 28.1616 6.43817 27.1703C4.63381 26.179 3.18004 24.6542 2.27597 22.8046C1.37191 20.955 1.06177 18.8711 1.38803 16.8384C1.71429 14.8057 2.661 12.9236 4.09849 11.4499C5.53598 9.97612 7.39394 8.98283 9.41788 8.60603C11.4418 8.22924 13.5328 8.48738 15.4043 9.34509C17.2758 10.2028 18.8364 11.6181 19.8723 13.3973C20.9082 15.1764 21.3688 17.2322 21.1909 19.2832L22.448 19.3923Z" fill="#1F2632"/>
<path d="M49.1272 57.6932C49.2892 54.4219 48.7871 51.1517 47.6511 48.0798C46.5152 45.0078 44.7688 42.1977 42.5174 39.8189C40.266 37.4401 37.5562 35.5419 34.5514 34.2387C31.5465 32.9355 28.3089 32.2543 25.0336 32.2362C21.7584 32.2181 18.5134 32.8635 15.4944 34.1334C12.4753 35.4034 9.74472 37.2716 7.4672 39.6254C5.18968 41.9792 3.41243 44.7698 2.24259 47.8291C1.07276 50.8883 0.534586 54.1528 0.660514 57.4256L1.85056 57.3798C1.73082 54.2676 2.24257 51.1635 3.35497 48.2544C4.46737 45.3454 6.15737 42.6917 8.32307 40.4535C10.4888 38.2153 13.0853 36.4388 15.9562 35.2312C18.827 34.0236 21.9126 33.4099 25.0271 33.4271C28.1415 33.4443 31.2202 34.0921 34.0775 35.3313C36.9348 36.5705 39.5116 38.3755 41.6525 40.6375C43.7933 42.8995 45.4539 45.5717 46.5341 48.4928C47.6143 51.414 48.0918 54.5236 47.9377 57.6343L49.1272 57.6932Z" fill="#1F2632"/>
<path d="M28.3589 11.6424C27.7786 14.0357 27.8199 16.54 28.4785 18.9124C29.1372 21.2848 30.391 23.4447 32.1182 25.1827C33.8455 26.9207 35.9875 28.1777 38.3366 28.8317C40.6857 29.4857 43.162 29.5146 45.5254 28.9156L45.233 27.7355C43.0707 28.2836 40.8051 28.2571 38.6559 27.6587C36.5067 27.0604 34.5469 25.9103 32.9666 24.3203C31.3864 22.7302 30.2393 20.754 29.6367 18.5835C29.034 16.413 28.9963 14.1217 29.5272 11.9321L28.3589 11.6424Z" fill="#1F2632"/>
<path d="M49.1571 14.4045C49.1571 18.3969 45.9925 21.6334 42.0888 21.6334C38.1851 21.6334 35.0205 18.3969 35.0205 14.4045C35.0205 10.412 38.1851 7.17554 42.0888 7.17554C45.9925 7.17554 49.1571 10.412 49.1571 14.4045ZM35.9846 14.4045C35.9846 17.8523 38.7176 20.6474 42.0888 20.6474C45.4601 20.6474 48.193 17.8523 48.193 14.4045C48.193 10.9566 45.4601 8.16159 42.0888 8.16159C38.7176 8.16159 35.9846 10.9566 35.9846 14.4045Z" fill="#1F2632"/>
<path d="M33.7352 48.1393C33.7352 53.019 29.7795 56.9747 24.8998 56.9747C20.0202 56.9747 16.0645 53.019 16.0645 48.1393C16.0645 43.2597 20.0202 39.304 24.8998 39.304C29.7795 39.304 33.7352 43.2597 33.7352 48.1393ZM17.2916 48.1393C17.2916 52.3413 20.6979 55.7476 24.8998 55.7476C29.1018 55.7476 32.5081 52.3413 32.5081 48.1393C32.5081 43.9374 29.1018 40.5311 24.8998 40.5311C20.6979 40.5311 17.2916 43.9374 17.2916 48.1393Z" fill="#1F2632"/>
</svg>
