<svg width="148" height="34" viewBox="0 0 148 34" fill="none" xmlns="http://www.w3.org/2000/svg">
<rect width="148" height="34" rx="17" fill="#EFF6FF"/>
<mask id="mask0_120_551" style="mask-type:alpha" maskUnits="userSpaceOnUse" x="12" y="5" width="24" height="24">
<rect x="12" y="5" width="24" height="24" fill="#2563EB"/>
</mask>
<g mask="url(#mask0_120_551)">
<path d="M24 24.55C23.8167 24.55 23.6375 24.525 23.4625 24.475C23.2875 24.425 23.125 24.3584 22.975 24.275C22.2917 23.8584 21.575 23.5417 20.825 23.325C20.075 23.1084 19.3 23 18.5 23C17.8 23 17.1125 23.0917 16.4375 23.275C15.7625 23.4583 15.1167 23.7167 14.5 24.05C14.15 24.2333 13.8125 24.225 13.4875 24.025C13.1625 23.825 13 23.5333 13 23.15V11.1C13 10.9167 13.0458 10.7417 13.1375 10.575C13.2292 10.4083 13.3667 10.2833 13.55 10.2C14.3167 9.80002 15.1167 9.50002 15.95 9.30002C16.7833 9.10002 17.6333 9.00002 18.5 9.00002C19.4667 9.00002 20.4125 9.12502 21.3375 9.37502C22.2625 9.62502 23.15 10 24 10.5V22.6C24.85 22.0667 25.7417 21.6667 26.675 21.4C27.6083 21.1334 28.55 21 29.5 21C30.1 21 30.6875 21.05 31.2625 21.15C31.8375 21.25 32.4167 21.4 33 21.6V9.60002C33.25 9.68335 33.4958 9.77085 33.7375 9.86252C33.9792 9.95418 34.2167 10.0667 34.45 10.2C34.6333 10.2833 34.7708 10.4083 34.8625 10.575C34.9542 10.7417 35 10.9167 35 11.1V23.15C35 23.5333 34.8375 23.825 34.5125 24.025C34.1875 24.225 33.85 24.2333 33.5 24.05C32.8833 23.7167 32.2375 23.4583 31.5625 23.275C30.8875 23.0917 30.2 23 29.5 23C28.7 23 27.925 23.1084 27.175 23.325C26.425 23.5417 25.7083 23.8584 25.025 24.275C24.875 24.3584 24.7125 24.425 24.5375 24.475C24.3625 24.525 24.1833 24.55 24 24.55ZM26.825 19.25C26.6583 19.4 26.4792 19.4292 26.2875 19.3375C26.0958 19.2459 26 19.0917 26 18.875V10.7C26 10.6333 26.0125 10.5708 26.0375 10.5125C26.0625 10.4542 26.1 10.4 26.15 10.35L30.15 6.35002C30.3167 6.18335 30.5 6.14168 30.7 6.22502C30.9 6.30835 31 6.46668 31 6.70002V15.275C31 15.3583 30.9833 15.4292 30.95 15.4875C30.9167 15.5458 30.875 15.6 30.825 15.65L26.825 19.25Z" fill="#2563EB"/>
</g>
<path d="M55.3864 17.1818C55.3864 18.4242 55.1591 19.4924 54.7045 20.3864C54.25 21.2765 53.6269 21.9621 52.8352 22.4432C52.0473 22.9205 51.1515 23.1591 50.1477 23.1591C49.1402 23.1591 48.2405 22.9205 47.4489 22.4432C46.661 21.9621 46.0398 21.2746 45.5852 20.3807C45.1307 19.4867 44.9034 18.4205 44.9034 17.1818C44.9034 15.9394 45.1307 14.8731 45.5852 13.983C46.0398 13.089 46.661 12.4034 47.4489 11.9261C48.2405 11.4451 49.1402 11.2045 50.1477 11.2045C51.1515 11.2045 52.0473 11.4451 52.8352 11.9261C53.6269 12.4034 54.25 13.089 54.7045 13.983C55.1591 14.8731 55.3864 15.9394 55.3864 17.1818ZM53.6477 17.1818C53.6477 16.2348 53.4943 15.4375 53.1875 14.7898C52.8845 14.1383 52.4678 13.6458 51.9375 13.3125C51.411 12.9754 50.8144 12.8068 50.1477 12.8068C49.4773 12.8068 48.8788 12.9754 48.3523 13.3125C47.8258 13.6458 47.4091 14.1383 47.1023 14.7898C46.7992 15.4375 46.6477 16.2348 46.6477 17.1818C46.6477 18.1288 46.7992 18.928 47.1023 19.5795C47.4091 20.2273 47.8258 20.7197 48.3523 21.0568C48.8788 21.3902 49.4773 21.5568 50.1477 21.5568C50.8144 21.5568 51.411 21.3902 51.9375 21.0568C52.4678 20.7197 52.8845 20.2273 53.1875 19.5795C53.4943 18.928 53.6477 18.1288 53.6477 17.1818ZM65.0582 11.3636H66.8196V19.017C66.8196 19.8314 66.6283 20.553 66.2457 21.1818C65.8632 21.8068 65.3253 22.2992 64.6321 22.6591C63.9389 23.0152 63.1264 23.1932 62.1946 23.1932C61.2666 23.1932 60.456 23.0152 59.7628 22.6591C59.0696 22.2992 58.5317 21.8068 58.1491 21.1818C57.7666 20.553 57.5753 19.8314 57.5753 19.017V11.3636H59.331V18.875C59.331 19.4015 59.4465 19.8693 59.6776 20.2784C59.9124 20.6875 60.2438 21.0095 60.6719 21.2443C61.0999 21.4754 61.6075 21.5909 62.1946 21.5909C62.7855 21.5909 63.295 21.4754 63.723 21.2443C64.1548 21.0095 64.4844 20.6875 64.7116 20.2784C64.9427 19.8693 65.0582 19.4015 65.0582 18.875V11.3636ZM69.3722 23V11.3636H73.5199C74.4214 11.3636 75.1695 11.5189 75.7642 11.8295C76.3627 12.1402 76.8097 12.5701 77.1051 13.1193C77.4006 13.6648 77.5483 14.2955 77.5483 15.0114C77.5483 15.7235 77.3987 16.3504 77.0994 16.892C76.804 17.4299 76.357 17.8485 75.7585 18.1477C75.1638 18.447 74.4157 18.5966 73.5142 18.5966H70.3722V17.0852H73.3551C73.9233 17.0852 74.3854 17.0038 74.7415 16.8409C75.1013 16.678 75.3646 16.4413 75.5312 16.1307C75.6979 15.8201 75.7812 15.447 75.7812 15.0114C75.7812 14.572 75.696 14.1913 75.5256 13.8693C75.3589 13.5473 75.0956 13.3011 74.7358 13.1307C74.3797 12.9564 73.9119 12.8693 73.3324 12.8693H71.1278V23H69.3722ZM75.1165 17.75L77.9915 23H75.9915L73.1733 17.75H75.1165ZM90.2656 14.4205C90.205 13.8826 89.955 13.4659 89.5156 13.1705C89.0762 12.8712 88.5232 12.7216 87.8565 12.7216C87.3793 12.7216 86.9664 12.7973 86.6179 12.9489C86.2694 13.0966 85.9986 13.3011 85.8054 13.5625C85.616 13.8201 85.5213 14.1136 85.5213 14.4432C85.5213 14.7197 85.5857 14.9583 85.7145 15.1591C85.8471 15.3598 86.0194 15.5284 86.2315 15.6648C86.4474 15.7973 86.6785 15.9091 86.9247 16C87.1709 16.0871 87.4077 16.1591 87.6349 16.2159L88.7713 16.5114C89.1425 16.6023 89.5232 16.7254 89.9134 16.8807C90.3035 17.036 90.6652 17.2405 90.9986 17.4943C91.3319 17.7481 91.6009 18.0625 91.8054 18.4375C92.0137 18.8125 92.1179 19.2614 92.1179 19.7841C92.1179 20.4432 91.9474 21.0284 91.6065 21.5398C91.2694 22.0511 90.7789 22.4545 90.1349 22.75C89.4948 23.0455 88.7202 23.1932 87.8111 23.1932C86.9399 23.1932 86.1861 23.0549 85.5497 22.7784C84.9134 22.5019 84.4152 22.1098 84.0554 21.6023C83.6955 21.0909 83.4967 20.4848 83.4588 19.7841H85.2202C85.2543 20.2045 85.3906 20.5549 85.6293 20.8352C85.8717 21.1117 86.1804 21.3182 86.5554 21.4545C86.9342 21.5871 87.349 21.6534 87.7997 21.6534C88.2959 21.6534 88.7372 21.5758 89.1236 21.4205C89.5137 21.2614 89.8205 21.0417 90.044 20.7614C90.2675 20.4773 90.3793 20.1458 90.3793 19.767C90.3793 19.4223 90.2808 19.1402 90.0838 18.9205C89.8906 18.7008 89.6274 18.5189 89.294 18.375C88.9645 18.2311 88.5914 18.1042 88.1747 17.9943L86.7997 17.6193C85.8679 17.3655 85.1293 16.9924 84.5838 16.5C84.0421 16.0076 83.7713 15.3561 83.7713 14.5455C83.7713 13.875 83.9531 13.2898 84.3168 12.7898C84.6804 12.2898 85.1728 11.9015 85.794 11.625C86.4152 11.3447 87.116 11.2045 87.8963 11.2045C88.6842 11.2045 89.3793 11.3428 89.9815 11.6193C90.5876 11.8958 91.0649 12.2765 91.4134 12.7614C91.7618 13.2424 91.9437 13.7955 91.9588 14.4205H90.2656ZM93.642 12.875V11.3636H102.648V12.875H99.017V23H97.267V12.875H93.642ZM114.246 17.1818C114.246 18.4242 114.018 19.4924 113.564 20.3864C113.109 21.2765 112.486 21.9621 111.695 22.4432C110.907 22.9205 110.011 23.1591 109.007 23.1591C108 23.1591 107.1 22.9205 106.308 22.4432C105.52 21.9621 104.899 21.2746 104.445 20.3807C103.99 19.4867 103.763 18.4205 103.763 17.1818C103.763 15.9394 103.99 14.8731 104.445 13.983C104.899 13.089 105.52 12.4034 106.308 11.9261C107.1 11.4451 108 11.2045 109.007 11.2045C110.011 11.2045 110.907 11.4451 111.695 11.9261C112.486 12.4034 113.109 13.089 113.564 13.983C114.018 14.8731 114.246 15.9394 114.246 17.1818ZM112.507 17.1818C112.507 16.2348 112.354 15.4375 112.047 14.7898C111.744 14.1383 111.327 13.6458 110.797 13.3125C110.27 12.9754 109.674 12.8068 109.007 12.8068C108.337 12.8068 107.738 12.9754 107.212 13.3125C106.685 13.6458 106.268 14.1383 105.962 14.7898C105.659 15.4375 105.507 16.2348 105.507 17.1818C105.507 18.1288 105.659 18.928 105.962 19.5795C106.268 20.2273 106.685 20.7197 107.212 21.0568C107.738 21.3902 108.337 21.5568 109.007 21.5568C109.674 21.5568 110.27 21.3902 110.797 21.0568C111.327 20.7197 111.744 20.2273 112.047 19.5795C112.354 18.928 112.507 18.1288 112.507 17.1818ZM116.435 23V11.3636H120.582C121.484 11.3636 122.232 11.5189 122.827 11.8295C123.425 12.1402 123.872 12.5701 124.168 13.1193C124.463 13.6648 124.611 14.2955 124.611 15.0114C124.611 15.7235 124.461 16.3504 124.162 16.892C123.866 17.4299 123.42 17.8485 122.821 18.1477C122.226 18.447 121.478 18.5966 120.577 18.5966H117.435V17.0852H120.418C120.986 17.0852 121.448 17.0038 121.804 16.8409C122.164 16.678 122.427 16.4413 122.594 16.1307C122.76 15.8201 122.844 15.447 122.844 15.0114C122.844 14.572 122.759 14.1913 122.588 13.8693C122.421 13.5473 122.158 13.3011 121.798 13.1307C121.442 12.9564 120.974 12.8693 120.395 12.8693H118.19V23H116.435ZM122.179 17.75L125.054 23H123.054L120.236 17.75H122.179ZM125.428 11.3636H127.422L130.462 16.6534H130.587L133.626 11.3636H135.621L131.399 18.4318V23H129.649V18.4318L125.428 11.3636Z" fill="#2563EB"/>
</svg>
